# Blender 3.4.1
# www.blender.org
mtllib body_tri.mtl
o Cube
v -1.000000 -1.000000 1.000000
v -1.000000 1.000000 1.000000
v -1.000000 -1.000000 -1.000000
v -1.000000 1.000000 -1.000000
v 1.000000 -1.000000 1.000000
v 1.000000 1.000000 1.000000
v 1.000000 -1.000000 -1.000000
v 1.000000 1.000000 -1.000000
v -1.000000 3.000000 1.000000
v -1.000000 3.000000 -1.000000
v 1.000000 3.000000 1.000000
v 1.000000 3.000000 -1.000000
v 0.000000 -1.000000 -1.000000
v 0.000000 1.000000 -1.000000
v 0.000000 -1.000000 1.000000
v 0.000000 1.000000 1.000000
v 0.000000 3.000000 -1.000000
v 0.000000 3.000000 1.000000
v -1.000000 0.000000 1.000000
v -1.000000 0.000000 -1.000000
v 1.000000 0.000000 -1.000000
v 1.000000 0.000000 1.000000
v 0.000000 0.000000 1.000000
v 0.000000 0.000000 -1.000000
v -1.000000 1.000000 4.000000
v 0.000000 1.000000 4.000000
v -1.000000 0.000000 4.000000
v 0.000000 0.000000 4.000000
v -1.000000 1.000000 -4.000000
v 0.000000 1.000000 -4.000000
v -1.000000 0.000000 -4.000000
v 0.000000 0.000000 -4.000000
v -1.000000 -1.000000 -0.273923
v -1.000000 1.000000 -0.273923
v 1.000000 -1.000000 -0.273923
v 1.000000 1.000000 -0.273923
v -1.000000 3.000000 -0.273923
v 1.000000 3.000000 -0.273923
v 0.000000 3.000000 -0.273923
v 0.000000 -1.000000 -0.273923
v 1.000000 0.000000 -0.273923
v -1.000000 0.000000 -0.273923
v -1.000000 -1.000000 0.328608
v 1.000000 1.000000 0.328608
v 1.000000 3.000000 0.328608
v 0.000000 3.000000 0.328608
v 0.000000 -1.000000 0.328608
v 1.000000 0.000000 0.328608
v -1.000000 1.000000 0.328608
v 1.000000 -1.000000 0.328608
v -1.000000 3.000000 0.328608
v -1.000000 0.000000 0.328608
v -1.000000 -5.000000 1.000000
v 0.000000 -5.000000 1.000000
v -1.000000 -5.000000 0.328608
v 0.000000 -5.000000 0.328608
v -1.000000 -5.000000 -1.000000
v 0.000000 -5.000000 -1.000000
v -1.000000 -5.000000 -0.273923
v 0.000000 -5.000000 -0.273923
vn -1.0000 -0.0000 -0.0000
vn -0.0000 -0.0000 -1.0000
vn 1.0000 -0.0000 -0.0000
vn -0.0000 -1.0000 -0.0000
vn -0.0000 1.0000 -0.0000
vn -0.0000 -0.0000 1.0000
vt 0.375000 0.000000
vt 0.375000 1.000000
vt 0.625000 1.000000
vt 0.625000 0.000000
vt 0.375000 0.250000
vt 0.625000 0.250000
vt 0.375000 0.750000
vt 0.625000 0.750000
vt 0.375000 0.500000
vt 0.625000 0.500000
vt 0.875000 0.750000
vt 0.625000 0.000000
vt 0.625000 1.000000
vt 0.625000 0.250000
vt 0.875000 0.500000
vt 0.625000 0.750000
vt 0.625000 0.500000
vt 0.250000 0.500000
vt 0.375000 0.375000
vt 0.625000 0.375000
vt 0.375000 0.875000
vt 0.250000 0.750000
vt 0.625000 0.875000
vt 0.625000 0.375000
vt 0.750000 0.500000
vt 0.625000 0.875000
vt 0.750000 0.750000
vt 0.500000 1.000000
vt 0.500000 0.000000
vt 0.500000 0.250000
vt 0.500000 0.500000
vt 0.500000 0.750000
vt 0.500000 0.875000
vt 0.500000 0.375000
vt 0.625000 0.000000
vt 0.625000 1.000000
vt 0.625000 0.875000
vt 0.500000 1.000000
vt 0.500000 0.000000
vt 0.500000 0.875000
vt 0.625000 0.250000
vt 0.625000 0.375000
vt 0.500000 0.250000
vt 0.500000 0.375000
vt 0.375000 0.159240
vt 0.125000 0.590760
vt 0.625000 0.159240
vt 0.375000 0.590760
vt 0.625000 0.590760
vt 0.625000 0.159240
vt 0.875000 0.590760
vt 0.625000 0.590760
vt 0.750000 0.590760
vt 0.250000 0.590760
vt 0.500000 0.590760
vt 0.500000 0.159240
vt 0.125000 0.666076
vt 0.375000 0.083924
vt 0.625000 0.666076
vt 0.625000 0.666076
vt 0.750000 0.666076
vt 0.250000 0.666076
vt 0.500000 0.666076
vt 0.625000 0.083924
vt 0.375000 0.666076
vt 0.625000 0.083924
vt 0.875000 0.666076
vt 0.500000 0.083924
vt 0.125000 0.750000
vt 0.375000 0.000000
vt 0.375000 1.000000
vt 0.375000 0.875000
vt 0.250000 0.750000
vt 0.125000 0.666076
vt 0.375000 0.083924
vt 0.250000 0.666076
vt 0.125000 0.500000
vt 0.375000 0.250000
vt 0.250000 0.500000
vt 0.375000 0.375000
vt 0.375000 0.159240
vt 0.125000 0.590760
vt 0.250000 0.590760
s 0
f 34/47/1 20/30/1 42/56/1
f 14/20/2 21/31/2 24/34/2
f 44/59/3 22/32/3 48/63/3
f 23/33/4 27/38/4 19/28/4
f 50/65/4 15/22/4 47/62/4
f 4/6/2 17/24/2 14/20/2
f 51/67/5 18/27/5 46/61/5
f 8/10/3 38/52/3 36/49/3
f 2/4/1 51/66/1 49/64/1
f 6/8/6 18/26/6 16/23/6
f 16/23/6 9/13/6 2/3/6
f 46/61/5 11/16/5 45/60/5
f 14/20/2 12/17/2 8/10/2
f 47/62/2 55/74/2 43/57/2
f 6/8/6 23/33/6 22/32/6
f 14/20/5 29/41/5 4/6/5
f 20/30/2 13/19/2 3/5/2
f 22/32/6 15/21/6 5/7/6
f 23/33/6 1/2/6 15/21/6
f 48/63/3 5/7/3 50/65/3
f 24/34/2 7/9/2 13/19/2
f 42/56/1 3/5/1 33/45/1
f 26/37/6 27/38/6 28/40/6
f 16/23/3 28/40/3 23/33/3
f 19/29/1 25/35/1 2/4/1
f 2/3/5 26/37/5 16/23/5
f 29/41/2 32/44/2 31/43/2
f 24/34/3 30/42/3 14/20/3
f 4/6/1 31/43/1 20/30/1
f 20/30/4 32/44/4 24/34/4
f 52/68/1 33/45/1 43/58/1
f 21/31/3 35/48/3 7/9/3
f 3/5/1 59/81/1 33/45/1
f 17/25/5 38/52/5 12/17/5
f 34/47/1 10/14/1 4/6/1
f 36/49/3 45/60/3 44/59/3
f 10/15/5 39/53/5 17/25/5
f 7/9/4 40/54/4 13/18/4
f 8/10/3 41/55/3 21/31/3
f 49/64/1 42/56/1 52/68/1
f 2/4/1 52/68/1 19/29/1
f 44/59/3 11/16/3 6/8/3
f 19/29/1 43/58/1 1/1/1
f 41/55/3 50/65/3 35/48/3
f 40/54/4 43/57/4 33/46/4
f 39/53/5 45/60/5 38/52/5
f 49/64/1 37/50/1 34/47/1
f 37/51/5 46/61/5 39/53/5
f 35/48/4 47/62/4 40/54/4
f 36/49/3 48/63/3 41/55/3
f 56/76/4 53/69/4 55/74/4
f 43/58/1 53/70/1 1/1/1
f 1/2/6 54/72/6 15/21/6
f 15/22/3 56/76/3 47/62/3
f 58/79/4 59/82/4 57/77/4
f 40/54/3 58/79/3 13/18/3
f 33/46/6 60/83/6 40/54/6
f 13/19/2 57/78/2 3/5/2
f 34/47/1 4/6/1 20/30/1
f 14/20/2 8/10/2 21/31/2
f 44/59/3 6/8/3 22/32/3
f 23/33/4 28/40/4 27/38/4
f 50/65/4 5/7/4 15/22/4
f 4/6/2 10/14/2 17/24/2
f 51/67/5 9/11/5 18/27/5
f 8/10/3 12/17/3 38/52/3
f 2/4/1 9/12/1 51/66/1
f 6/8/6 11/16/6 18/26/6
f 16/23/6 18/26/6 9/13/6
f 46/61/5 18/27/5 11/16/5
f 14/20/2 17/24/2 12/17/2
f 47/62/2 56/76/2 55/74/2
f 6/8/6 16/23/6 23/33/6
f 14/20/5 30/42/5 29/41/5
f 20/30/2 24/34/2 13/19/2
f 22/32/6 23/33/6 15/21/6
f 23/33/6 19/28/6 1/2/6
f 48/63/3 22/32/3 5/7/3
f 24/34/2 21/31/2 7/9/2
f 42/56/1 20/30/1 3/5/1
f 26/37/6 25/36/6 27/38/6
f 16/23/3 26/37/3 28/40/3
f 19/29/1 27/39/1 25/35/1
f 2/3/5 25/36/5 26/37/5
f 29/41/2 30/42/2 32/44/2
f 24/34/3 32/44/3 30/42/3
f 4/6/1 29/41/1 31/43/1
f 20/30/4 31/43/4 32/44/4
f 52/68/1 42/56/1 33/45/1
f 21/31/3 41/55/3 35/48/3
f 3/5/1 57/78/1 59/81/1
f 17/25/5 39/53/5 38/52/5
f 34/47/1 37/50/1 10/14/1
f 36/49/3 38/52/3 45/60/3
f 10/15/5 37/51/5 39/53/5
f 7/9/4 35/48/4 40/54/4
f 8/10/3 36/49/3 41/55/3
f 49/64/1 34/47/1 42/56/1
f 2/4/1 49/64/1 52/68/1
f 44/59/3 45/60/3 11/16/3
f 19/29/1 52/68/1 43/58/1
f 41/55/3 48/63/3 50/65/3
f 40/54/4 47/62/4 43/57/4
f 39/53/5 46/61/5 45/60/5
f 49/64/1 51/66/1 37/50/1
f 37/51/5 51/67/5 46/61/5
f 35/48/4 50/65/4 47/62/4
f 36/49/3 44/59/3 48/63/3
f 56/76/4 54/73/4 53/69/4
f 43/58/1 55/75/1 53/70/1
f 1/2/6 53/71/6 54/72/6
f 15/22/3 54/73/3 56/76/3
f 58/79/4 60/83/4 59/82/4
f 40/54/3 60/83/3 58/79/3
f 33/46/6 59/82/6 60/83/6
f 13/19/2 58/80/2 57/78/2
